<svg width="20" height="20" viewBox="0 0 20 20" fill="none" xmlns="http://www.w3.org/2000/svg">
<path d="M14.1667 1.6665V10.8332M18.3333 8.1665V4.33317C18.3333 3.39975 18.3333 2.93304 18.1517 2.57652C17.9919 2.26292 17.7369 2.00795 17.4233 1.84816C17.0668 1.6665 16.6001 1.6665 15.6667 1.6665H6.76501C5.54711 1.6665 4.93816 1.6665 4.44632 1.88937C4.01284 2.08579 3.64442 2.40186 3.38437 2.80043C3.08931 3.25267 2.99672 3.85453 2.81153 5.05827L2.37563 7.89161C2.13137 9.47926 2.00925 10.2731 2.24484 10.8908C2.45162 11.4329 2.84054 11.8862 3.34494 12.1731C3.91961 12.4998 4.72278 12.4998 6.32912 12.4998H7C7.46671 12.4998 7.70007 12.4998 7.87833 12.5907C8.03513 12.6706 8.16261 12.798 8.24251 12.9548C8.33334 13.1331 8.33334 13.3665 8.33334 13.8332V16.2783C8.33334 17.4132 9.25333 18.3332 10.3882 18.3332C10.6589 18.3332 10.9042 18.1738 11.0141 17.9264L13.8148 11.625C13.9421 11.3384 14.0058 11.1951 14.1065 11.09C14.1955 10.9971 14.3048 10.9261 14.4258 10.8825C14.5627 10.8332 14.7195 10.8332 15.0332 10.8332H15.6667C16.6001 10.8332 17.0668 10.8332 17.4233 10.6515C17.7369 10.4917 17.9919 10.2368 18.1517 9.92315C18.3333 9.56663 18.3333 9.09992 18.3333 8.1665Z" stroke="white" stroke-width="1.66667" stroke-linecap="round" stroke-linejoin="round"/>
</svg>
