<svg width="20" height="20" viewBox="0 0 20 20" fill="none" xmlns="http://www.w3.org/2000/svg">
<path d="M5.83329 18.3332V9.1665M1.66663 10.8332V16.6665C1.66663 17.587 2.41282 18.3332 3.33329 18.3332H14.5218C15.7558 18.3332 16.8051 17.4329 16.9928 16.2133L17.8902 10.38C18.1232 8.86558 16.9515 7.49984 15.4193 7.49984H12.5C12.0397 7.49984 11.6666 7.12674 11.6666 6.6665V3.72137C11.6666 2.5865 10.7466 1.6665 9.61176 1.6665C9.34107 1.6665 9.09578 1.82592 8.98584 2.07327L6.05324 8.67162C5.91949 8.97256 5.62106 9.1665 5.29173 9.1665H3.33329C2.41282 9.1665 1.66663 9.9127 1.66663 10.8332Z" stroke="white" stroke-width="1.66667" stroke-linecap="round" stroke-linejoin="round"/>
</svg>
