<svg width="71" height="71" viewBox="0 0 71 71" fill="none" xmlns="http://www.w3.org/2000/svg">
<path d="M35.4998 59.1668C34.7152 59.1668 33.9628 58.8551 33.408 58.3004C32.8532 57.7456 32.5415 56.9931 32.5415 56.2085V5.91683C32.5415 5.13223 32.8532 4.37977 33.408 3.82497C33.9628 3.27018 34.7152 2.9585 35.4998 2.9585C36.2844 2.9585 37.0369 3.27018 37.5917 3.82497C38.1465 4.37977 38.4582 5.13223 38.4582 5.91683V56.2085C38.4582 56.9931 38.1465 57.7456 37.5917 58.3004C37.0369 58.8551 36.2844 59.1668 35.4998 59.1668Z" fill="#AE7AFF"/>
<path d="M56.2083 26.6244C55.4238 26.6242 54.6715 26.3124 54.1168 25.7576L35.5 7.14078L16.8832 25.7576C16.3253 26.2965 15.578 26.5946 14.8023 26.5879C14.0266 26.5812 13.2847 26.27 12.7362 25.7215C12.1877 25.173 11.8765 24.4311 11.8698 23.6554C11.8631 22.8797 12.1612 22.1324 12.7001 21.5745L33.4085 0.86616C33.9632 0.311558 34.7156 0 35.5 0C36.2844 0 37.0368 0.311558 37.5915 0.86616L58.2999 21.5745C58.7135 21.9882 58.9951 22.5153 59.1092 23.0891C59.2233 23.6628 59.1647 24.2576 58.9409 24.7981C58.717 25.3385 58.3379 25.8005 57.8516 26.1256C57.3652 26.4507 56.7933 26.6242 56.2083 26.6244ZM68.0417 70.9994H2.95833C2.17373 70.9994 1.42127 70.6877 0.866476 70.1329C0.311681 69.5781 0 68.8256 0 68.041C0 67.2564 0.311681 66.504 0.866476 65.9492C1.42127 65.3944 2.17373 65.0827 2.95833 65.0827H68.0417C68.8263 65.0827 69.5787 65.3944 70.1335 65.9492C70.6883 66.504 71 67.2564 71 68.041C71 68.8256 70.6883 69.5781 70.1335 70.1329C69.5787 70.6877 68.8263 70.9994 68.0417 70.9994Z" fill="#AE7AFF"/>
<path d="M68.0417 71C67.2571 71 66.5046 70.6883 65.9498 70.1335C65.395 69.5787 65.0833 68.8263 65.0833 68.0417V56.2083C65.0833 55.4237 65.395 54.6713 65.9498 54.1165C66.5046 53.5617 67.2571 53.25 68.0417 53.25C68.8263 53.25 69.5787 53.5617 70.1335 54.1165C70.6883 54.6713 71 55.4237 71 56.2083V68.0417C71 68.8263 70.6883 69.5787 70.1335 70.1335C69.5787 70.6883 68.8263 71 68.0417 71ZM2.95833 71C2.17373 71 1.42127 70.6883 0.866476 70.1335C0.311681 69.5787 0 68.8263 0 68.0417V56.2083C0 55.4237 0.311681 54.6713 0.866476 54.1165C1.42127 53.5617 2.17373 53.25 2.95833 53.25C3.74293 53.25 4.4954 53.5617 5.05019 54.1165C5.60499 54.6713 5.91667 55.4237 5.91667 56.2083V68.0417C5.91667 68.8263 5.60499 69.5787 5.05019 70.1335C4.4954 70.6883 3.74293 71 2.95833 71Z" fill="#AE7AFF"/>
</svg>
